<mxfile host="app.diagrams.net" modified="2023-08-06T21:23:07.378Z" agent="Mozilla/5.0 (Windows NT 10.0; Win64; x64) AppleWebKit/537.36 (KHTML, like Gecko) Chrome/115.0.0.0 Safari/537.36" etag="gWqZwxvY56xP-PJiCLv0" version="21.6.6" type="device">
  <diagram name="Page-1" id="2YBvvXClWsGukQMizWep">
    <mxGraphModel dx="2647" dy="1580" grid="1" gridSize="10" guides="1" tooltips="1" connect="1" arrows="1" fold="1" page="1" pageScale="1" pageWidth="850" pageHeight="1100" math="0" shadow="0">
      <root>
        <mxCell id="0" />
        <mxCell id="1" parent="0" />
        <mxCell id="nZ8uCZlaQuFoHqbtni7n-3" value="" style="edgeStyle=orthogonalEdgeStyle;rounded=0;orthogonalLoop=1;jettySize=auto;html=1;" edge="1" parent="1" source="nZ8uCZlaQuFoHqbtni7n-1" target="nZ8uCZlaQuFoHqbtni7n-2">
          <mxGeometry relative="1" as="geometry" />
        </mxCell>
        <mxCell id="nZ8uCZlaQuFoHqbtni7n-1" value="TestMethodStarting" style="rounded=0;whiteSpace=wrap;html=1;" vertex="1" parent="1">
          <mxGeometry x="331" y="91" width="200" height="60" as="geometry" />
        </mxCell>
        <mxCell id="nZ8uCZlaQuFoHqbtni7n-5" value="" style="edgeStyle=orthogonalEdgeStyle;rounded=0;orthogonalLoop=1;jettySize=auto;html=1;" edge="1" parent="1" source="nZ8uCZlaQuFoHqbtni7n-2" target="nZ8uCZlaQuFoHqbtni7n-4">
          <mxGeometry relative="1" as="geometry" />
        </mxCell>
        <mxCell id="nZ8uCZlaQuFoHqbtni7n-2" value="TestCaseStarting" style="rounded=0;whiteSpace=wrap;html=1;" vertex="1" parent="1">
          <mxGeometry x="331" y="191" width="200" height="60" as="geometry" />
        </mxCell>
        <mxCell id="nZ8uCZlaQuFoHqbtni7n-7" value="" style="edgeStyle=orthogonalEdgeStyle;rounded=0;orthogonalLoop=1;jettySize=auto;html=1;" edge="1" parent="1" source="nZ8uCZlaQuFoHqbtni7n-4" target="nZ8uCZlaQuFoHqbtni7n-6">
          <mxGeometry relative="1" as="geometry" />
        </mxCell>
        <mxCell id="nZ8uCZlaQuFoHqbtni7n-4" value="TestStarting" style="rounded=0;whiteSpace=wrap;html=1;" vertex="1" parent="1">
          <mxGeometry x="331" y="291" width="200" height="60" as="geometry" />
        </mxCell>
        <mxCell id="nZ8uCZlaQuFoHqbtni7n-10" value="" style="edgeStyle=orthogonalEdgeStyle;rounded=0;orthogonalLoop=1;jettySize=auto;html=1;" edge="1" parent="1" source="nZ8uCZlaQuFoHqbtni7n-6" target="nZ8uCZlaQuFoHqbtni7n-9">
          <mxGeometry relative="1" as="geometry" />
        </mxCell>
        <mxCell id="nZ8uCZlaQuFoHqbtni7n-6" value="TestClassConstructionStarting" style="whiteSpace=wrap;html=1;rounded=0;" vertex="1" parent="1">
          <mxGeometry x="331" y="401" width="200" height="60" as="geometry" />
        </mxCell>
        <mxCell id="nZ8uCZlaQuFoHqbtni7n-12" value="" style="edgeStyle=orthogonalEdgeStyle;rounded=0;orthogonalLoop=1;jettySize=auto;html=1;exitX=0.25;exitY=1;exitDx=0;exitDy=0;" edge="1" parent="1" source="nZ8uCZlaQuFoHqbtni7n-9" target="nZ8uCZlaQuFoHqbtni7n-11">
          <mxGeometry relative="1" as="geometry" />
        </mxCell>
        <mxCell id="nZ8uCZlaQuFoHqbtni7n-13" style="edgeStyle=orthogonalEdgeStyle;rounded=0;orthogonalLoop=1;jettySize=auto;html=1;exitX=0.5;exitY=1;exitDx=0;exitDy=0;entryX=0.5;entryY=0;entryDx=0;entryDy=0;" edge="1" parent="1" source="nZ8uCZlaQuFoHqbtni7n-9" target="nZ8uCZlaQuFoHqbtni7n-14">
          <mxGeometry relative="1" as="geometry">
            <mxPoint x="481" y="631" as="targetPoint" />
          </mxGeometry>
        </mxCell>
        <mxCell id="nZ8uCZlaQuFoHqbtni7n-16" style="edgeStyle=orthogonalEdgeStyle;rounded=0;orthogonalLoop=1;jettySize=auto;html=1;exitX=0.75;exitY=1;exitDx=0;exitDy=0;entryX=0.5;entryY=0;entryDx=0;entryDy=0;" edge="1" parent="1" source="nZ8uCZlaQuFoHqbtni7n-9" target="nZ8uCZlaQuFoHqbtni7n-15">
          <mxGeometry relative="1" as="geometry" />
        </mxCell>
        <mxCell id="nZ8uCZlaQuFoHqbtni7n-9" value="TestClassConstructionFinished" style="whiteSpace=wrap;html=1;rounded=0;" vertex="1" parent="1">
          <mxGeometry x="331" y="501" width="200" height="60" as="geometry" />
        </mxCell>
        <mxCell id="nZ8uCZlaQuFoHqbtni7n-24" style="edgeStyle=orthogonalEdgeStyle;rounded=0;orthogonalLoop=1;jettySize=auto;html=1;exitX=0.5;exitY=1;exitDx=0;exitDy=0;entryX=0.25;entryY=0;entryDx=0;entryDy=0;" edge="1" parent="1" source="nZ8uCZlaQuFoHqbtni7n-11" target="nZ8uCZlaQuFoHqbtni7n-17">
          <mxGeometry relative="1" as="geometry" />
        </mxCell>
        <mxCell id="nZ8uCZlaQuFoHqbtni7n-11" value="TestPassed" style="whiteSpace=wrap;html=1;rounded=0;" vertex="1" parent="1">
          <mxGeometry x="210" y="621" width="120" height="60" as="geometry" />
        </mxCell>
        <mxCell id="nZ8uCZlaQuFoHqbtni7n-19" style="edgeStyle=orthogonalEdgeStyle;rounded=0;orthogonalLoop=1;jettySize=auto;html=1;exitX=0.5;exitY=1;exitDx=0;exitDy=0;entryX=0.5;entryY=0;entryDx=0;entryDy=0;" edge="1" parent="1" source="nZ8uCZlaQuFoHqbtni7n-14" target="nZ8uCZlaQuFoHqbtni7n-17">
          <mxGeometry relative="1" as="geometry" />
        </mxCell>
        <mxCell id="nZ8uCZlaQuFoHqbtni7n-14" value="TestFailed" style="whiteSpace=wrap;html=1;rounded=0;" vertex="1" parent="1">
          <mxGeometry x="371" y="621" width="120" height="60" as="geometry" />
        </mxCell>
        <mxCell id="nZ8uCZlaQuFoHqbtni7n-21" style="edgeStyle=orthogonalEdgeStyle;rounded=0;orthogonalLoop=1;jettySize=auto;html=1;exitX=0.5;exitY=1;exitDx=0;exitDy=0;entryX=0.75;entryY=0;entryDx=0;entryDy=0;" edge="1" parent="1" source="nZ8uCZlaQuFoHqbtni7n-15" target="nZ8uCZlaQuFoHqbtni7n-17">
          <mxGeometry relative="1" as="geometry" />
        </mxCell>
        <mxCell id="nZ8uCZlaQuFoHqbtni7n-15" value="TestSkipped" style="whiteSpace=wrap;html=1;rounded=0;" vertex="1" parent="1">
          <mxGeometry x="521" y="621" width="120" height="60" as="geometry" />
        </mxCell>
        <mxCell id="nZ8uCZlaQuFoHqbtni7n-23" value="" style="edgeStyle=orthogonalEdgeStyle;rounded=0;orthogonalLoop=1;jettySize=auto;html=1;" edge="1" parent="1" source="nZ8uCZlaQuFoHqbtni7n-17" target="nZ8uCZlaQuFoHqbtni7n-22">
          <mxGeometry relative="1" as="geometry" />
        </mxCell>
        <mxCell id="nZ8uCZlaQuFoHqbtni7n-17" value="TestFinished" style="whiteSpace=wrap;html=1;rounded=0;" vertex="1" parent="1">
          <mxGeometry x="331" y="751" width="200" height="60" as="geometry" />
        </mxCell>
        <mxCell id="nZ8uCZlaQuFoHqbtni7n-26" value="" style="edgeStyle=orthogonalEdgeStyle;rounded=0;orthogonalLoop=1;jettySize=auto;html=1;" edge="1" parent="1" source="nZ8uCZlaQuFoHqbtni7n-22" target="nZ8uCZlaQuFoHqbtni7n-25">
          <mxGeometry relative="1" as="geometry" />
        </mxCell>
        <mxCell id="nZ8uCZlaQuFoHqbtni7n-22" value="TestCaseFinished" style="whiteSpace=wrap;html=1;rounded=0;" vertex="1" parent="1">
          <mxGeometry x="331" y="852" width="200" height="60" as="geometry" />
        </mxCell>
        <mxCell id="nZ8uCZlaQuFoHqbtni7n-25" value="TestMethodFinished" style="whiteSpace=wrap;html=1;rounded=0;" vertex="1" parent="1">
          <mxGeometry x="331" y="950" width="200" height="60" as="geometry" />
        </mxCell>
      </root>
    </mxGraphModel>
  </diagram>
</mxfile>
